<?xml version="1.0" standalone="no"?>
<!DOCTYPE svg PUBLIC "-//W3C//DTD SVG 20010904//EN"
 "http://www.w3.org/TR/2001/REC-SVG-20010904/DTD/svg10.dtd">
<svg version="1.0" xmlns="http://www.w3.org/2000/svg"
 width="32.000000pt" height="32.000000pt" viewBox="0 0 32.000000 32.000000"
 preserveAspectRatio="xMidYMid meet">

<g transform="translate(0.000000,32.000000) scale(0.100000,-0.100000)"
fill="#000000" stroke="none">
<path d="M30 290 c-11 -11 -20 -24 -20 -30 0 -23 41 -50 77 -50 l36 0 -21 -23
c-25 -27 -29 -75 -7 -83 8 -4 15 -19 15 -35 0 -36 24 -49 89 -49 50 0 91 23
91 50 0 23 -41 50 -77 50 l-36 0 21 23 c25 27 29 75 7 83 -8 4 -15 19 -15 35
0 36 -24 49 -89 49 -38 0 -56 -5 -71 -20z m135 -30 c0 -11 -15 -16 -62 -18
-58 -3 -63 -1 -63 18 0 19 5 21 63 18 47 -2 62 -7 62 -18z m31 -61 c7 -13 -54
-79 -73 -79 -30 0 -26 33 8 61 37 31 54 35 65 18z m62 -126 c-2 -14 -15 -19
-57 -21 -30 -2 -58 1 -64 7 -19 19 5 31 64 31 52 0 60 -2 57 -17z"/>
</g>
</svg>
