<?xml version="1.0" standalone="no"?>
<!DOCTYPE svg PUBLIC "-//W3C//DTD SVG 20010904//EN"
 "http://www.w3.org/TR/2001/REC-SVG-20010904/DTD/svg10.dtd">
<svg version="1.0" xmlns="http://www.w3.org/2000/svg"
 width="16.000000pt" height="16.000000pt" viewBox="0 0 16.000000 16.000000"
 preserveAspectRatio="xMidYMid meet">

<g transform="translate(0.000000,16.000000) scale(0.100000,-0.100000)"
fill="#000000" stroke="none">
<path d="M35 120 l-39 -40 42 -42 c40 -41 42 -42 59 -24 17 17 17 18 -2 12
-32 -9 -49 9 -50 54 -1 52 23 70 61 45 32 -21 30 -36 -4 -30 -22 4 -28 1 -28
-15 0 -16 6 -19 28 -15 18 4 28 1 28 -7 0 -8 6 -6 17 5 16 16 15 19 -22 57
-21 22 -42 40 -45 40 -3 0 -24 -18 -45 -40z"/>
</g>
</svg>
